<svg width="180" height="176" viewBox="0 0 180 176" fill="none" xmlns="http://www.w3.org/2000/svg">
<path d="M81.3462 174C59.9784 163.136 55.1284 153.182 56.1205 127.662C68.4768 126.425 73.913 123.987 81.3462 117C89.5949 123.984 95.2605 126.285 106.986 127.662C107.33 155.345 101.272 165.083 81.3462 174Z" fill="#2463EB"/>
<path fill-rule="evenodd" clip-rule="evenodd" d="M81.0829 115.002C81.1065 115.003 81.13 115.005 81.1536 115.007C81.1802 115.01 81.2067 115.012 81.2331 115.016C81.2611 115.02 81.2889 115.025 81.3167 115.031C81.3415 115.035 81.3661 115.041 81.3907 115.047C81.416 115.053 81.4411 115.06 81.4662 115.068C81.4907 115.075 81.5152 115.082 81.5394 115.09C81.5702 115.101 81.6006 115.113 81.631 115.126C81.649 115.133 81.667 115.141 81.6848 115.149C81.7147 115.163 81.744 115.178 81.7732 115.193C81.7924 115.203 81.8115 115.214 81.8303 115.225C81.8578 115.241 81.8847 115.258 81.9115 115.276C81.9299 115.288 81.9481 115.301 81.9661 115.314C81.9935 115.334 82.0201 115.355 82.0465 115.377C82.0627 115.39 82.0789 115.404 82.0947 115.418C82.1054 115.427 82.1171 115.436 82.1277 115.446C86.027 119.121 89.2629 121.35 92.8514 122.781C96.46 124.221 100.541 124.901 106.219 125.307C106.24 125.308 106.262 125.313 106.284 125.315C106.309 125.318 106.334 125.32 106.358 125.324C106.385 125.328 106.412 125.334 106.438 125.339C106.465 125.345 106.492 125.351 106.518 125.358C106.552 125.366 106.585 125.377 106.618 125.387C106.632 125.392 106.646 125.396 106.66 125.401C106.699 125.415 106.737 125.431 106.774 125.448C106.785 125.453 106.797 125.458 106.808 125.464C106.843 125.48 106.877 125.498 106.911 125.517C106.924 125.525 106.937 125.532 106.951 125.54C106.979 125.558 107.007 125.576 107.034 125.595C107.053 125.608 107.072 125.621 107.091 125.635C107.114 125.653 107.137 125.672 107.16 125.692C107.176 125.706 107.193 125.72 107.209 125.734C107.231 125.754 107.251 125.774 107.271 125.794C107.29 125.814 107.309 125.834 107.328 125.854C107.342 125.871 107.357 125.888 107.371 125.905C107.389 125.927 107.407 125.95 107.424 125.973C107.44 125.994 107.456 126.017 107.471 126.039C107.485 126.061 107.498 126.083 107.512 126.105C107.526 126.129 107.539 126.153 107.553 126.178C107.564 126.198 107.575 126.219 107.585 126.24C107.6 126.272 107.614 126.305 107.627 126.338C107.633 126.353 107.64 126.367 107.645 126.382C107.657 126.414 107.667 126.447 107.676 126.48C107.683 126.502 107.69 126.525 107.696 126.548C107.703 126.579 107.71 126.61 107.716 126.641C107.72 126.661 107.724 126.681 107.727 126.701C107.733 126.738 107.736 126.775 107.739 126.812C107.74 126.826 107.743 126.839 107.744 126.853C108.503 139.472 107.691 148.806 103.735 156.484C99.766 164.187 92.77 169.961 81.7837 175.801C81.7317 175.829 81.6783 175.854 81.6237 175.877C81.6026 175.886 81.5808 175.892 81.5594 175.9C81.5309 175.911 81.5025 175.921 81.4735 175.93C81.4426 175.939 81.4114 175.947 81.3802 175.954C81.3607 175.959 81.3413 175.964 81.3216 175.968C81.2954 175.973 81.2691 175.977 81.2428 175.981C81.2128 175.985 81.183 175.99 81.1528 175.993C81.1335 175.995 81.1142 175.995 81.0949 175.996C81.0631 175.998 81.0313 176 80.9993 176C80.9675 176 80.936 175.998 80.9044 175.996C80.8849 175.995 80.8653 175.995 80.8458 175.993C80.8153 175.99 80.7851 175.985 80.7549 175.981C80.7295 175.977 80.704 175.973 80.6786 175.968C80.6586 175.964 80.6389 175.959 80.6191 175.954C80.588 175.947 80.5568 175.939 80.5259 175.93C80.4968 175.921 80.4685 175.911 80.4399 175.9C80.4185 175.892 80.3968 175.886 80.3756 175.877C80.321 175.854 80.2677 175.829 80.2157 175.801C69.2296 169.961 62.2342 164.187 58.265 156.484C54.3146 148.816 53.4993 139.498 54.253 126.903C54.2533 126.894 54.2542 126.884 54.2546 126.875C54.255 126.868 54.2557 126.86 54.2562 126.853C54.2565 126.847 54.2575 126.842 54.2578 126.837C54.2612 126.788 54.2662 126.739 54.2739 126.691C54.2751 126.683 54.2766 126.676 54.2779 126.668C54.2856 126.624 54.2948 126.58 54.306 126.537C54.3097 126.523 54.3133 126.509 54.3173 126.495C54.3283 126.457 54.3406 126.419 54.3542 126.382C54.3597 126.368 54.3653 126.353 54.3711 126.338C54.3845 126.305 54.3983 126.272 54.4137 126.24C54.4238 126.219 54.435 126.198 54.4459 126.178C54.459 126.153 54.4725 126.129 54.4869 126.105C54.4992 126.084 54.5123 126.064 54.5254 126.044C54.5431 126.018 54.561 125.991 54.5801 125.965C54.5916 125.95 54.6042 125.935 54.6163 125.92C54.6368 125.895 54.6578 125.87 54.6797 125.845C54.6924 125.832 54.7052 125.818 54.7183 125.804C54.7437 125.778 54.7693 125.752 54.7963 125.728C54.8063 125.719 54.8166 125.71 54.8268 125.701C54.8553 125.677 54.8843 125.653 54.9144 125.631C54.9283 125.62 54.9428 125.611 54.957 125.601C54.9868 125.58 55.0167 125.559 55.0478 125.54C55.0611 125.532 55.0746 125.525 55.088 125.517C55.1213 125.498 55.1554 125.48 55.1901 125.464C55.2016 125.458 55.2131 125.453 55.2247 125.448C55.262 125.431 55.2999 125.415 55.3388 125.401C55.3525 125.396 55.3666 125.392 55.3806 125.387C55.4134 125.377 55.4465 125.366 55.4802 125.358C55.5068 125.351 55.5336 125.345 55.5606 125.339C55.5869 125.334 55.6133 125.328 55.6402 125.324C55.6646 125.32 55.6893 125.318 55.7141 125.315C55.7363 125.312 55.7584 125.308 55.7808 125.307C61.4585 124.901 65.5393 124.221 69.1479 122.781C72.7365 121.35 75.9724 119.121 79.8717 115.446C79.8821 115.436 79.8933 115.427 79.9038 115.418C79.9196 115.404 79.9359 115.39 79.9521 115.377C79.9784 115.355 80.0051 115.334 80.0324 115.314C80.0504 115.301 80.0687 115.288 80.0871 115.276C80.1138 115.258 80.1407 115.241 80.1682 115.225C80.187 115.214 80.2062 115.203 80.2253 115.193C80.2545 115.178 80.2838 115.163 80.3137 115.149C80.3315 115.141 80.3495 115.133 80.3676 115.126C80.3979 115.113 80.4283 115.101 80.4592 115.09C80.4833 115.082 80.5079 115.075 80.5323 115.068C80.5574 115.06 80.5825 115.053 80.6079 115.047C80.6324 115.041 80.6571 115.035 80.6818 115.031C80.7096 115.025 80.7374 115.02 80.7654 115.016C80.7918 115.012 80.8184 115.01 80.845 115.007C80.8685 115.005 80.8921 115.003 80.9157 115.002C80.9435 115 80.9714 115 80.9993 115C81.0272 115 81.055 115 81.0829 115.002ZM80.9993 118.885C77.3719 122.155 74.0834 124.363 70.3663 125.845C66.6346 127.334 62.5674 128.054 57.463 128.483C56.8636 140.187 57.793 148.378 61.1905 154.972C64.625 161.637 70.7122 166.918 80.9993 172.481C91.2869 166.918 97.3751 161.637 100.81 154.972C104.207 148.378 105.135 140.187 104.536 128.483C99.4315 128.054 95.3645 127.334 91.633 125.845C87.9158 124.363 84.6268 122.155 80.9993 118.885Z" fill="#182D53"/>
<path d="M91.5028 135.674C92.2354 134.847 93.4995 134.77 94.326 135.503C95.1525 136.235 95.2292 137.499 94.4969 138.326L79.4276 155.326C79.0512 155.751 78.5117 155.996 77.9442 156C77.3768 156.004 76.8341 155.766 76.452 155.346L68.5214 146.639C67.7776 145.823 67.8367 144.558 68.6532 143.814C69.4698 143.07 70.7346 143.129 71.4784 143.946L77.91 151.008L91.5028 135.674Z" fill="#F2F4F5"/>
<path d="M59.0021 21.3523C60.4644 19.6964 62.9917 19.5395 64.6476 21.0018C66.3035 22.464 66.4604 24.9914 64.9982 26.6473L44.6876 49.6473C43.9346 50.5 42.8545 50.9921 41.7169 50.9998C40.5793 51.0075 39.4922 50.5298 38.7277 49.6873L28.0382 37.907C26.5537 36.271 26.6766 33.7412 28.3126 32.2566C29.9485 30.7727 32.4776 30.8955 33.962 32.5311L41.6486 41.0027L59.0021 21.3523Z" fill="#2463EB"/>
<path fill-rule="evenodd" clip-rule="evenodd" d="M60 84C64.4183 84 68 87.5817 68 92V117C68 118.105 67.1046 119 66 119C64.8954 119 64 118.105 64 117V92C64 91.5535 63.925 91.1246 63.79 90.7236L44.3799 106.187L57.4326 119.604C58.2035 120.394 58.1873 121.662 57.3965 122.433C56.6055 123.204 55.3384 123.187 54.5674 122.396L41.2344 108.691L35.7461 113.064C35.0263 113.638 34.0082 113.646 33.2793 113.084L27.3418 108.509L8.27539 128H50.1904C50.1903 128.003 50.1896 128.007 50.1895 128.01C51.2051 128.105 52 128.959 52 130C52 131.093 51.123 131.98 50.0342 131.998V132H8L7.58789 131.989C6.29262 131.924 5.07939 131.548 4.01855 130.938C3.68397 130.856 3.36578 130.688 3.10156 130.43C2.99978 130.33 2.91094 130.222 2.83496 130.108C1.19913 128.724 0.126559 126.694 0.0107422 124.412L0 124V92C5.15422e-07 87.5817 3.58172 84 8 84H60ZM4.21875 90.6934C4.07726 91.1029 4 91.5424 4 92V124C4 124.755 4.20938 125.462 4.57324 126.064L24.1514 106.051L4.21875 90.6934ZM8 88C7.77715 88 7.55863 88.0187 7.3457 88.0537L34.4785 108.959L60.709 88.0635C60.4788 88.0223 60.242 88 60 88H8Z" fill="#182D53"/>
<path d="M114.526 161.716C115.57 161.356 116.709 161.91 117.069 162.954C117.429 163.998 116.874 165.137 115.83 165.497C114.464 165.968 113.06 166.436 111.615 166.903C110.564 167.243 109.436 166.666 109.096 165.615C108.757 164.564 109.334 163.436 110.385 163.097C111.808 162.636 113.188 162.177 114.526 161.716ZM130.423 155.024C131.396 154.503 132.608 154.869 133.13 155.843C133.651 156.816 133.285 158.029 132.311 158.551C129.774 159.909 127.069 161.165 124.173 162.363C123.152 162.785 121.982 162.3 121.56 161.279C121.138 160.258 121.624 159.089 122.644 158.667C125.441 157.51 128.023 156.309 130.423 155.024ZM143.949 144.932C144.712 144.134 145.979 144.106 146.777 144.869C147.575 145.632 147.604 146.899 146.841 147.697C144.713 149.922 142.443 151.913 139.993 153.724C139.105 154.381 137.853 154.194 137.196 153.305C136.539 152.417 136.726 151.165 137.614 150.509C139.884 148.829 141.982 146.989 143.949 144.932ZM153.728 131.042C154.249 130.067 155.46 129.699 156.434 130.22C157.409 130.74 157.777 131.951 157.257 132.926C155.761 135.726 154.211 138.285 152.577 140.638C151.947 141.544 150.701 141.769 149.794 141.139C148.887 140.508 148.662 139.262 149.292 138.355C150.826 136.146 152.297 133.722 153.728 131.042ZM159.144 119.254C159.556 118.229 160.721 117.732 161.746 118.144C162.771 118.556 163.267 119.721 162.855 120.746C162.284 122.166 161.71 123.539 161.132 124.866C160.69 125.878 159.511 126.341 158.499 125.899C157.487 125.458 157.024 124.28 157.466 123.267C158.028 121.978 158.587 120.641 159.144 119.254Z" fill="#182D53"/>
<path d="M79 37C79 18.7746 64.2254 4 46 4C27.7746 4 13 18.7746 13 37C13 55.2254 27.7746 70 46 70V74C25.5655 74 9 57.4345 9 37C9 16.5655 25.5655 0 46 0C66.4345 0 83 16.5655 83 37C83 57.4345 66.4345 74 46 74V70C64.2254 70 79 55.2254 79 37Z" fill="#182D53"/>
<path d="M112.5 109L116 98.5H138L141.5 109H112.5Z" fill="#2463EB"/>
<rect x="79" y="80" width="98" height="16" fill="#2463EB"/>
<path fill-rule="evenodd" clip-rule="evenodd" d="M170 4C175.523 4 180 8.47715 180 14V90C180 95.5229 175.523 100 170 100H140.735L142.963 107H151C152.105 107 153 107.895 153 109C153 110.105 152.105 111 151 111H104C102.895 111 102 110.105 102 109C102 107.895 102.895 107 104 107H111.037L113.265 100H87C81.4772 100 77 95.5229 77 90V68.5C77 67.3954 77.8954 66.5 79 66.5C80.1046 66.5 81 67.3954 81 68.5V78.001C81.0101 78.0009 81.0202 78 81.0303 78H174.97C175.332 78 175.5 78 176 78V14C176 10.6863 173.314 8 170 8H85C82.7909 8 81 9.79086 81 12C81 13.1046 80.1046 14 79 14C77.8954 14 77 13.1046 77 12C77 7.58172 80.5817 4 85 4H170ZM117.463 100L115.235 107H138.765L136.537 100H117.463ZM176 82C175.5 82 175.332 82 174.97 82H81.0303C81.0202 82 81.0101 81.9981 81 81.998V90C81 93.3137 83.6863 96 87 96H115.991C116.004 95.9999 116.017 95.9998 116.03 96H137.97C137.983 95.9998 137.996 95.9999 138.009 96H170C173.314 96 176 93.3137 176 90V82Z" fill="#182D53"/>
<path d="M143.546 59C144.349 59.0003 145 59.8956 145 61C145 62.1044 144.349 62.9997 143.546 63H98.4541C97.651 62.9997 97 62.1044 97 61C97 59.8956 97.651 59.0003 98.4541 59H143.546Z" fill="#182D53"/>
<path d="M143.546 39C144.349 39.0003 145 39.8956 145 41C145 42.1044 144.349 42.9997 143.546 43H98.4541C97.651 42.9997 97 42.1044 97 41C97 39.8956 97.651 39.0003 98.4541 39H143.546Z" fill="#182D53"/>
<path d="M161 27C162.105 27 163 27.8954 163 29C163 30.1046 162.105 31 161 31H99C97.8954 31 97 30.1046 97 29C97 27.8954 97.8954 27 99 27H161Z" fill="#182D53"/>
<circle cx="128" cy="133" r="3" fill="#182D53"/>
</svg>
