<svg width="157" height="48" viewBox="0 0 157 48" fill="none" xmlns="http://www.w3.org/2000/svg">
<g clip-path="url(#clip0_6365_8250)">
<path d="M157 48V0H0V47.9867H151.09L144.701 41.6088H5.91024V6.04641H150.944V47.9867H157V48Z" fill="#1A1A1A"/>
<path d="M19.9089 12.4993H26.483V20.9966H33.5371V12.4993H40.1112V35.4302H33.5371V26.4526H26.483V35.4302H19.9089V12.4993Z" fill="#1A1A1A"/>
<path d="M54.0594 27.2663C54.0594 24.385 53.0993 22.6108 51.1791 22.6108C49.2588 22.6108 48.2987 24.3716 48.2987 27.2663C48.2987 30.161 49.2588 31.9219 51.1791 31.9219C53.0993 31.9085 54.0594 30.1477 54.0594 27.2663ZM42.3647 27.2663C42.2047 22.4507 46.0585 18.2887 50.859 18.1287C55.6729 17.9686 59.8334 21.8237 59.9934 26.626C60.1534 31.4417 56.2996 35.6036 51.4991 35.7637H51.1791C46.5252 36.0839 42.6848 32.5622 42.3647 27.9066V27.2663Z" fill="#1A1A1A"/>
<path d="M67.3675 12.4993H61.1135V35.4302H67.3675V12.4993Z" fill="#1A1A1A"/>
<path d="M75.5551 12.4993H69.3011V35.4302H75.5551V12.4993Z" fill="#1A1A1A"/>
<path d="M88.0499 29.9876V28.0667C87.2498 28.3868 86.6097 28.707 85.6496 28.8671C83.8894 29.3473 83.2493 29.8275 83.2493 30.788C83.2493 31.7484 84.2094 32.3888 85.1695 32.3888C86.6097 32.5488 87.8898 31.4283 88.0499 29.9876ZM87.8898 33.6827C86.7697 35.1234 84.8495 36.0838 82.916 35.9238C79.8756 35.9238 77.462 34.323 77.462 31.1081C77.462 27.5731 80.3423 26.2925 83.396 26.1324C86.7697 25.6522 87.8898 25.3321 87.8898 24.3716C87.8898 23.4111 87.4098 22.7708 86.1296 22.7708C85.1695 22.6108 84.0494 23.5712 84.0494 24.6918V24.8518H78.2754C78.4355 21.6503 80.9957 18.9157 85.9696 18.9157C87.7298 18.7556 89.6634 19.2358 91.2636 19.8761C92.8637 20.8366 93.9839 22.7575 93.8238 24.6918V32.869C93.8238 34.1496 93.9839 34.95 94.4639 35.2701V35.5903H88.5299C88.0499 34.8032 88.0499 34.323 87.8898 33.6827Z" fill="#1A1A1A"/>
<path d="M95.9174 12.4993H113.719V17.9552H102.651V20.9966H111.946V25.9724H102.651V29.5074H114.039V35.2835H95.9174V12.4993Z" fill="#1A1A1A"/>
<path d="M120.44 26.9462L115.466 19.0891H122.36L124.281 22.7842L126.201 19.0891H132.615L127.961 26.9462L133.255 35.4436H126.361L123.961 31.1082L121.56 35.4436H114.986L120.44 26.9462Z" fill="#1A1A1A"/>
<path d="M134.255 33.8827C134.228 32.1753 135.589 30.7613 137.309 30.7346C139.016 30.7079 140.429 32.0685 140.456 33.7894C140.456 33.816 140.456 33.8561 140.456 33.8827C140.482 35.5902 139.122 37.0042 137.402 37.0309C135.695 37.0576 134.282 35.6969 134.255 33.9761C134.255 33.9494 134.255 33.9094 134.255 33.8827ZM139.829 33.8827C139.829 32.402 138.776 31.2948 137.349 31.2948C135.935 31.2948 134.868 32.3887 134.868 33.8827C134.868 35.3768 135.922 36.484 137.349 36.484C138.776 36.484 139.829 35.3768 139.829 33.8827ZM135.949 32.2153H137.602C138.282 32.2153 138.909 32.5221 138.909 33.2024C138.922 33.5626 138.696 33.8827 138.362 33.9895V34.0161C138.616 34.0962 138.789 34.3096 138.829 34.5764C138.922 34.9633 138.856 35.3768 139.002 35.4435V35.5235H137.962C137.869 35.4702 137.895 35.07 137.829 34.7632C137.775 34.5097 137.655 34.4163 137.375 34.4163H137.015V35.5235H135.962L135.949 32.2153ZM137.002 33.656H137.442C137.709 33.656 137.855 33.5493 137.855 33.3358C137.855 33.1357 137.735 33.029 137.442 33.029H137.002V33.656Z" fill="#1A1A1A"/>
</g>
<defs>
<clipPath id="clip0_6365_8250">
<rect width="157" height="48" fill="white"/>
</clipPath>
</defs>
</svg>
